<svg display="none"><symbol id="icon-facebook" viewBox="0 0 16 16"><path d="M15.117 0H.883A.883.883 0 0 0 0 .883v14.234c0 .488.395.883.883.883h7.663V9.804H6.46V7.39h2.086V5.607c0-2.066 1.262-3.19 3.106-3.19.883 0 1.642.064 1.863.094v2.16h-1.28c-1 0-1.195.476-1.195 1.176v1.54h2.39l-.31 2.416h-2.08V16h4.077a.883.883 0 0 0 .883-.883V.883A.883.883 0 0 0 15.117 0"/></symbol><symbol id="icon-instagram" viewBox="0 0 111.2 111.3"><path d="M55.7 10.1c14.9 0 16.6.1 22.5.3 5.4.2 8.4 1.2 10.3 1.9 2.6 1 4.4 2.2 6.4 4.2 1.9 1.9 3.2 3.8 4.2 6.4.8 2 1.7 4.9 1.9 10.3.3 5.9.3 7.6.3 22.5s-.1 16.6-.3 22.5c-.2 5.4-1.2 8.4-1.9 10.3-1 2.6-2.2 4.4-4.2 6.4-1.9 1.9-3.8 3.2-6.4 4.2-2 .8-4.9 1.7-10.3 1.9-5.9.3-7.6.3-22.5.3s-16.6-.1-22.5-.3c-5.4-.2-8.4-1.2-10.3-1.9-2.6-1-4.4-2.2-6.4-4.2-1.9-1.9-3.2-3.8-4.2-6.4-.8-2-1.7-4.9-1.9-10.3-.3-5.9-.3-7.6-.3-22.5s.1-16.6.3-22.5c.2-5.4 1.2-8.4 1.9-10.3 1-2.6 2.2-4.4 4.2-6.4 1.9-1.9 3.8-3.2 6.4-4.2 2-.8 4.9-1.7 10.3-1.9 5.8-.3 7.6-.3 22.5-.3m0-10.1c-15.1 0-17 .1-22.9.3-5.9.3-10 1.2-13.5 2.6-3.7 1.4-6.8 3.3-9.9 6.4s-5 6.2-6.4 9.9C1.6 22.7.7 26.8.4 32.7c-.3 6-.4 7.9-.4 23s.1 17 .3 22.9c.3 5.9 1.2 10 2.6 13.5 1.4 3.7 3.3 6.8 6.4 9.9s6.2 5 9.9 6.4c3.5 1.4 7.6 2.3 13.5 2.6 5.9.3 7.8.3 22.9.3s17-.1 22.9-.3c5.9-.3 10-1.2 13.5-2.6 3.7-1.4 6.8-3.3 9.9-6.4s5-6.2 6.4-9.9c1.4-3.5 2.3-7.6 2.6-13.5.3-5.9.3-7.8.3-22.9s-.1-17-.3-22.9c-.3-5.9-1.2-10-2.6-13.5-1.4-3.7-3.3-6.8-6.4-9.9S95.7 4.4 92 3C88.5 1.6 84.5.7 78.6.4S70.8 0 55.7 0z"/><path d="M55.7 27.1c-15.8 0-28.6 12.8-28.6 28.6s12.8 28.6 28.6 28.6 28.6-12.8 28.6-28.6-12.9-28.6-28.6-28.6zm0 47.1c-10.2 0-18.5-8.3-18.5-18.5s8.3-18.5 18.5-18.5 18.5 8.3 18.5 18.5-8.3 18.5-18.5 18.5z"/><circle cx="85.3" cy="26" r="6.7"/></symbol><symbol id="icon-twitter" viewBox="0 0 16 16"><path d="M16 3.038a6.62 6.62 0 0 1-1.885.517 3.299 3.299 0 0 0 1.443-1.816 6.59 6.59 0 0 1-2.085.795 3.273 3.273 0 0 0-2.396-1.036 3.281 3.281 0 0 0-3.197 4.03A9.329 9.329 0 0 1 1.114 2.1 3.243 3.243 0 0 0 .67 3.75c0 1.14.58 2.143 1.46 2.732a3.278 3.278 0 0 1-1.487-.41v.04c0 1.59 1.13 2.918 2.633 3.22a3.336 3.336 0 0 1-1.482.056 3.287 3.287 0 0 0 3.067 2.28 6.592 6.592 0 0 1-4.077 1.404c-.265 0-.526-.015-.783-.045a9.303 9.303 0 0 0 5.032 1.474c6.038 0 9.34-5 9.34-9.338 0-.143-.004-.284-.01-.425a6.67 6.67 0 0 0 1.638-1.7z"/></symbol></svg>