<?xml version="1.0" encoding="utf-8"?>
<!-- Generator: Adobe Illustrator 21.1.0, SVG Export Plug-In . SVG Version: 6.00 Build 0)  -->
<svg version="1.1" id="レイヤー_1" xmlns="http://www.w3.org/2000/svg" xmlns:xlink="http://www.w3.org/1999/xlink" x="0px"
	 y="0px" viewBox="0 0 111.2 111.3" style="enable-background:new 0 0 111.2 111.3;" xml:space="preserve">
<g>
	<path d="M55.7,10.1c14.9,0,16.6,0.1,22.5,0.3c5.4,0.2,8.4,1.2,10.3,1.9c2.6,1,4.4,2.2,6.4,4.2c1.9,1.9,3.2,3.8,4.2,6.4
		c0.8,2,1.7,4.9,1.9,10.3c0.3,5.9,0.3,7.6,0.3,22.5s-0.1,16.6-0.3,22.5c-0.2,5.4-1.2,8.4-1.9,10.3c-1,2.6-2.2,4.4-4.2,6.4
		c-1.9,1.9-3.8,3.2-6.4,4.2c-2,0.8-4.9,1.7-10.3,1.9c-5.9,0.3-7.6,0.3-22.5,0.3s-16.6-0.1-22.5-0.3c-5.4-0.2-8.4-1.2-10.3-1.9
		c-2.6-1-4.4-2.2-6.4-4.2c-1.9-1.9-3.2-3.8-4.2-6.4c-0.8-2-1.7-4.9-1.9-10.3c-0.3-5.9-0.3-7.6-0.3-22.5s0.1-16.6,0.3-22.5
		c0.2-5.4,1.2-8.4,1.9-10.3c1-2.6,2.2-4.4,4.2-6.4c1.9-1.9,3.8-3.2,6.4-4.2c2-0.8,4.9-1.7,10.3-1.9C39,10.1,40.8,10.1,55.7,10.1
		 M55.7,0c-15.1,0-17,0.1-22.9,0.3c-5.9,0.3-10,1.2-13.5,2.6c-3.7,1.4-6.8,3.3-9.9,6.4s-5,6.2-6.4,9.9c-1.4,3.5-2.3,7.6-2.6,13.5
		c-0.3,6-0.4,7.9-0.4,23s0.1,17,0.3,22.9c0.3,5.9,1.2,10,2.6,13.5c1.4,3.7,3.3,6.8,6.4,9.9s6.2,5,9.9,6.4c3.5,1.4,7.6,2.3,13.5,2.6
		c5.9,0.3,7.8,0.3,22.9,0.3s17-0.1,22.9-0.3c5.9-0.3,10-1.2,13.5-2.6c3.7-1.4,6.8-3.3,9.9-6.4s5-6.2,6.4-9.9
		c1.4-3.5,2.3-7.6,2.6-13.5c0.3-5.9,0.3-7.8,0.3-22.9s-0.1-17-0.3-22.9c-0.3-5.9-1.2-10-2.6-13.5c-1.4-3.7-3.3-6.8-6.4-9.9
		S95.7,4.4,92,3c-3.5-1.4-7.5-2.3-13.4-2.6S70.8,0,55.7,0L55.7,0z"/>
	<path d="M55.7,27.1c-15.8,0-28.6,12.8-28.6,28.6s12.8,28.6,28.6,28.6s28.6-12.8,28.6-28.6S71.4,27.1,55.7,27.1z M55.7,74.2
		c-10.2,0-18.5-8.3-18.5-18.5s8.3-18.5,18.5-18.5s18.5,8.3,18.5,18.5S65.9,74.2,55.7,74.2z"/>
	<circle cx="85.3" cy="26" r="6.7"/>
</g>
</svg>
